<svg width="609" height="406" viewBox="0 0 609 406" fill="none" xmlns="http://www.w3.org/2000/svg">
<g opacity="0.05">
<path d="M292.996 347.807C347.932 347.807 392.466 303.272 392.466 248.337C392.466 193.401 347.932 148.867 292.996 148.867C238.061 148.867 193.526 193.401 193.526 248.337C193.526 303.272 238.061 347.807 292.996 347.807Z" fill="#FF8000"/>
<path d="M463.517 175.257C487.808 175.257 507.5 155.565 507.5 131.273C507.5 106.982 487.808 87.29 463.517 87.29C439.225 87.29 419.533 106.982 419.533 131.273C419.533 155.565 439.225 175.257 463.517 175.257Z" fill="#FF8000"/>
<path d="M110.297 170.52C147.668 170.52 177.963 140.225 177.963 102.853C177.963 65.4821 147.668 35.1867 110.297 35.1867C72.9253 35.1867 42.6299 65.4821 42.6299 102.853C42.6299 140.225 72.9253 170.52 110.297 170.52Z" fill="#FF8000"/>
</g>
</svg>
