<svg width="18" height="18" viewBox="0 0 18 18" fill="none" xmlns="http://www.w3.org/2000/svg">
<path d="M9.00353 4.95708C6.76759 4.95708 4.96407 6.7606 4.96407 8.99653C4.96407 11.2325 6.76759 13.036 9.00353 13.036C11.2395 13.036 13.043 11.2325 13.043 8.99653C13.043 6.7606 11.2395 4.95708 9.00353 4.95708ZM9.00353 11.6227C7.55861 11.6227 6.37736 10.445 6.37736 8.99653C6.37736 7.5481 7.55509 6.37036 9.00353 6.37036C10.452 6.37036 11.6297 7.5481 11.6297 8.99653C11.6297 10.445 10.4485 11.6227 9.00353 11.6227ZM14.1504 4.79185C14.1504 5.31567 13.7285 5.73403 13.2082 5.73403C12.6844 5.73403 12.266 5.31216 12.266 4.79185C12.266 4.27153 12.6879 3.84966 13.2082 3.84966C13.7285 3.84966 14.1504 4.27153 14.1504 4.79185ZM16.8258 5.7481C16.766 4.48599 16.4777 3.36802 15.5531 2.44692C14.632 1.52583 13.5141 1.23755 12.252 1.17427C10.9512 1.10044 7.05236 1.10044 5.75157 1.17427C4.49298 1.23403 3.37501 1.52231 2.4504 2.44341C1.52579 3.3645 1.24103 4.48247 1.17775 5.74458C1.10392 7.04536 1.10392 10.9442 1.17775 12.245C1.23751 13.5071 1.52579 14.625 2.4504 15.5461C3.37501 16.4672 4.48947 16.7555 5.75157 16.8188C7.05236 16.8926 10.9512 16.8926 12.252 16.8188C13.5141 16.759 14.632 16.4708 15.5531 15.5461C16.4742 14.625 16.7625 13.5071 16.8258 12.245C16.8996 10.9442 16.8996 7.04888 16.8258 5.7481ZM15.1453 13.6407C14.8711 14.3297 14.3402 14.8606 13.6477 15.1383C12.6106 15.5497 10.1496 15.4547 9.00353 15.4547C7.85743 15.4547 5.39298 15.5461 4.35939 15.1383C3.67032 14.8641 3.13947 14.3333 2.86173 13.6407C2.4504 12.6036 2.54532 10.1426 2.54532 8.99653C2.54532 7.85044 2.45392 5.38599 2.86173 4.35239C3.13595 3.66333 3.66681 3.13247 4.35939 2.85474C5.3965 2.44341 7.85743 2.53833 9.00353 2.53833C10.1496 2.53833 12.6141 2.44692 13.6477 2.85474C14.3367 3.12895 14.8676 3.65981 15.1453 4.35239C15.5567 5.3895 15.4617 7.85044 15.4617 8.99653C15.4617 10.1426 15.5567 12.6071 15.1453 13.6407Z" fill="white"/>
</svg>
