<svg width="20" height="20" viewBox="0 0 20 20" fill="none" xmlns="http://www.w3.org/2000/svg">
<path d="M19.0852 5.41947C18.8671 4.59829 18.2246 3.95155 17.4087 3.73207C15.9299 3.33325 9.99999 3.33325 9.99999 3.33325C9.99999 3.33325 4.07013 3.33325 2.59127 3.73207C1.7754 3.95159 1.13283 4.59829 0.914744 5.41947C0.518494 6.9079 0.518494 10.0134 0.518494 10.0134C0.518494 10.0134 0.518494 13.1189 0.914744 14.6073C1.13283 15.4285 1.7754 16.0483 2.59127 16.2678C4.07013 16.6666 9.99999 16.6666 9.99999 16.6666C9.99999 16.6666 15.9298 16.6666 17.4087 16.2678C18.2246 16.0483 18.8671 15.4285 19.0852 14.6073C19.4815 13.1189 19.4815 10.0134 19.4815 10.0134C19.4815 10.0134 19.4815 6.9079 19.0852 5.41947ZM8.06058 12.8329V7.19384L13.0168 10.0135L8.06058 12.8329Z" fill="white"/>
</svg>
